<?xml version="1.0" encoding="UTF-8"?>
<svg id="Livello_2" xmlns="http://www.w3.org/2000/svg" version="1.1" viewBox="0 0 1080 1080">
  <!-- Generator: Adobe Illustrator 29.8.9, SVG Export Plug-In . SVG Version: 2.1.1 Build 1)  -->
  <path d="M300.82,568.76c-7.71-.23-11.59-4.14-11.59-11.74v-36.81c5.66.57,9.46.87,11.47.87,6.23,0,11.74-.79,16.53-2.39,4.75-1.6,8.62-3.73,11.59-6.42,2.92-2.66,5.09-5.74,6.5-9.19,1.37-3.45,2.05-7.03,2.05-10.75s-.76-7.49-2.21-10.94c-1.48-3.41-3.72-6.53-6.68-9.3-2.96-2.74-6.69-4.9-11.17-6.5-4.45-1.6-9.61-2.39-15.46-2.39h-34.99v1.21h1.44c.5.12,1.37.31,2.62.65,1.29.34,2.47.88,3.5,1.56,1.03.72,1.93,1.9,2.73,3.54.76,1.64,1.14,3.68,1.14,6.15v80.73c0,4.1-1.06,7.07-3.23,8.89-2.12,1.82-4.9,2.77-8.2,2.85v1.18h33.96v-1.18ZM289.23,466.94c3.49-.65,6.87-.95,10.22-.95,8.63,0,15,2.55,19.26,7.64,4.22,5.12,6.34,11.62,6.34,19.52,0,9.65-2.43,16.22-7.22,19.76-4.82,3.57-10.67,5.32-17.59,5.32-3.61,0-7.29-.31-11.02-.99v-50.3Z"/>
  <path d="M380.72,568.76c-7.75-.23-11.63-4.14-11.63-11.74v-39.05c2.54,0,4.71.15,6.57.42,1.86.3,3.95,1.03,6.27,2.2,2.32,1.14,4.82,3.08,7.52,5.74,2.66,2.7,5.28,6.19,7.86,10.49l12.73,21.08c.19.19.76,1.03,1.71,2.51.95,1.48,1.67,2.58,2.13,3.3.84,1.1,1.6,2.17,2.36,3.15.72.99,1.48,2.01,2.32,3.08h19.41v-1.18c-2.58-.23-5.16-1.33-7.79-3.27-2.66-1.9-6.12-6.53-10.49-13.83l-9.65-16.3c-5.39-9.19-11.28-15.31-17.67-18.42v-.27c5.02-.95,9.19-2.66,12.58-5.24,3.34-2.54,5.85-5.62,7.45-9.16,1.64-3.57,2.43-7.26,2.43-11.13,0-3.04-.5-6.15-1.48-9.27-.99-3.15-2.62-6.12-4.94-8.97-2.27-2.81-5.5-5.16-9.61-6.99-4.14-1.83-9.2-2.74-15.12-2.74h-36.97v1.52h1.45c2.47,0,4.75.87,6.8,2.58,2.09,1.75,3.15,4.75,3.15,9v80.73c0,2.89-.57,5.21-1.63,6.91-1.1,1.75-2.47,2.93-4.1,3.65-1.64.68-3.53,1.1-5.67,1.18v1.18h34.01v-1.18ZM369.09,466.64c1.74-.42,3.99-.65,6.69-.65,6.69,0,11.96,1.33,15.92,4.03,3.91,2.69,6.72,6,8.36,9.91,1.63,3.95,2.47,7.98,2.47,12.08,0,4.94-.91,9.08-2.77,12.5-1.82,3.42-4.79,6.04-8.85,7.86-4.1,1.82-9.3,2.74-15.69,2.74h-6.11v-48.48Z"/>
  <path d="M611.35,524.91v1.22c3.99.49,7.03,1.48,9,3,2.01,1.47,3.04,4.55,3.04,9.19v19.57c0,2.7-.45,4.86-1.37,6.46-.88,1.6-2.93,2.85-6.12,3.76-3.19.91-8.16,1.37-14.93,1.37-17.13,0-29.59-4.98-37.34-14.93-7.79-9.96-11.66-23.21-11.66-39.85,0-10.44,1.6-19.1,4.79-25.98,3.19-6.87,7.21-12.12,12.04-15.77,4.82-3.6,9.8-6.11,14.89-7.48,5.09-1.36,9.88-2.09,14.32-2.09,8.54,0,16.15,1.94,22.83,5.78,6.65,3.84,10.75,9.23,12.31,16.18h1.18v-24.46h-1.18c-1.1,2.36-2.85,3.53-5.2,3.53-1.14,0-2.96-.3-5.51-.87-6.54-1.41-11.43-2.32-14.74-2.77-3.27-.46-6.61-.68-10.07-.68-8.88,0-16.98,1.56-24.27,4.67-7.29,3.12-13.44,7.37-18.5,12.73-4.14,4.41-7.48,9.31-10.03,14.71-2.93-6.27-6.91-11.78-11.82-16.45-5.35-5.09-11.36-8.96-18.08-11.62-6.73-2.7-13.72-4.03-21.01-4.03s-14.59,1.41-21.43,4.18c-6.84,2.81-12.92,6.76-18.27,11.89-5.32,5.13-9.5,11.13-12.46,18.01-2.96,6.88-4.45,14.25-4.45,22.08,0,10.18,2.47,19.6,7.48,28.26,5.02,8.66,11.85,15.54,20.55,20.63,8.7,5.09,18.27,7.63,28.68,7.63s19.87-2.55,28.42-7.63c8.55-5.09,15.31-11.97,20.25-20.55.69-1.14,1.29-2.32,1.86-3.49,1.44,3.11,3.23,6.12,5.31,9,4.75,6.54,10.18,11.44,16.38,14.78,6.19,3.34,12.11,5.47,17.85,6.46,5.7.95,11.47,1.44,17.29,1.44,11.32,0,22.3-1.4,32.94-4.25v-29.75c0-2.7.27-4.86.83-6.5.61-1.67,1.75-3,3.5-4.02,1.75-1.03,4.22-1.75,7.41-2.09v-1.22h-34.72ZM533.43,541.97c-2.62,6.84-6.04,12.27-10.3,16.27-4.21,3.98-8.89,6.83-13.98,8.62-5.09,1.75-10.14,2.62-15.12,2.62-5.55,0-10.9-.95-16.03-2.84-5.17-1.9-9.88-5.02-14.13-9.35-4.3-4.33-7.64-9.91-10.07-16.75-2.47-6.84-3.68-14.85-3.68-24.01,0-10.45,1.48-19.22,4.45-26.32,2.92-7.1,6.69-12.61,11.24-16.53,4.6-3.91,9.27-6.61,14.09-8.05,4.86-1.48,9.5-2.24,14.02-2.24,5.77,0,11.96,1.36,18.54,4.1,6.57,2.74,12.38,8.13,17.4,16.15,5.02,8.02,7.53,19.11,7.53,33.32,0,9.88-1.29,18.2-3.95,25.03"/>
  <path d="M682.35,568.76c-7.75-.23-11.59-4.14-11.59-11.74v-39.05c2.51,0,4.67.15,6.54.42,1.86.3,3.95,1.03,6.27,2.2,2.32,1.14,4.82,3.08,7.52,5.74,2.66,2.7,5.28,6.19,7.86,10.49l12.73,21.08c.23.19.8,1.03,1.71,2.51.95,1.48,1.67,2.58,2.16,3.3.8,1.1,1.6,2.17,2.32,3.15.72.99,1.48,2.01,2.32,3.08h19.41v-1.18c-2.55-.23-5.17-1.33-7.79-3.27-2.62-1.9-6.12-6.53-10.49-13.83l-9.64-16.3c-5.4-9.19-11.28-15.31-17.66-18.42v-.27c5.01-.95,9.23-2.66,12.57-5.24,3.34-2.54,5.85-5.62,7.45-9.16,1.63-3.57,2.43-7.26,2.43-11.13,0-3.04-.49-6.15-1.48-9.27-.98-3.15-2.62-6.12-4.9-8.97-2.32-2.81-5.51-5.16-9.65-6.99-4.14-1.83-9.15-2.74-15.12-2.74h-36.96v1.52h1.44c2.47,0,4.75.87,6.84,2.58,2.06,1.75,3.11,4.75,3.11,9v80.73c0,2.89-.57,5.21-1.63,6.91-1.1,1.75-2.47,2.93-4.1,3.65-1.63.68-3.53,1.1-5.66,1.18v1.18h34v-1.18ZM670.76,466.64c1.72-.42,3.95-.65,6.65-.65,6.69,0,11.97,1.33,15.92,4.03,3.95,2.69,6.72,6,8.36,9.91,1.63,3.95,2.47,7.98,2.47,12.08,0,4.94-.92,9.08-2.73,12.5-1.86,3.42-4.83,6.04-8.89,7.86-4.1,1.82-9.31,2.74-15.7,2.74h-6.08v-48.48Z"/>
  <polygon points="781.61 446.05 776.82 446.05 772.08 453.53 775.04 453.53 781.61 446.05"/>
  <path d="M813.14,553.18h-.99c-.99,2.81-2.17,5.21-3.61,7.18-1.4,1.98-3.38,3.53-5.81,4.63-2.47,1.1-5.62,1.67-9.42,1.67h-15.87c-3.95,0-6.5-1.02-7.6-3.12-1.06-2.09-1.6-4.56-1.6-7.41v-37.91h20.48c1.9,0,3.72.15,5.47.46.92,0,1.94.23,3.12.72,1.21.49,2.39,1.48,3.61,2.93,1.21,1.48,2.01,3.61,2.47,6.35h1.06v-24.2h-1.06c-.46,4.49-2.16,7.37-5.24,8.62-3.04,1.25-6.5,1.9-10.33,1.9h-19.57v-48.51h22.22c12.01,0,17.98,4.52,17.98,13.49h1.02v-16.79h-63.63v1.21h1.44c3.69,0,6.26,1.22,7.71,3.65,1.48,2.4,2.24,5.24,2.24,8.55v80.43c0,4.18-1.1,7.14-3.26,9-2.17,1.82-4.41,2.74-6.69,2.74h-1.44v1.17h63.63l3.69-16.75Z"/>
  <polygon points="290.26 624.49 282.24 624.49 282.24 618.07 280.15 618.07 280.15 633.53 282.24 633.53 282.24 626.46 290.26 626.46 290.26 633.53 292.35 633.53 292.35 618.07 290.26 618.07 290.26 624.49"/>
  <path d="M327.79,627.56c0,.46-.08.95-.19,1.49-.15.53-.38.99-.69,1.44-.3.42-.68.76-1.17,1.06-.5.27-1.14.42-1.87.42s-1.33-.15-1.82-.42c-.49-.3-.91-.65-1.21-1.06-.3-.46-.49-.91-.65-1.44-.11-.53-.19-1.03-.19-1.49v-9.49h-2.09v9.8c0,.91.15,1.75.45,2.47.31.72.72,1.37,1.25,1.9.53.53,1.18.95,1.9,1.25.73.3,1.53.46,2.36.46.88,0,1.63-.15,2.36-.46.76-.31,1.37-.72,1.9-1.25.57-.53.99-1.18,1.29-1.9.31-.72.45-1.56.45-2.47v-9.8h-2.09v9.49Z"/>
  <polygon points="363.39 629.76 363.31 629.76 358.41 618.07 355.26 618.07 355.26 633.53 357.35 633.53 357.35 620.8 357.42 620.8 362.63 633.53 364.03 633.53 369.24 620.8 369.32 620.8 369.32 633.53 371.4 633.53 371.4 618.07 368.29 618.07 363.39 629.76"/>
  <path d="M401.91,618.07l-6.8,15.46h2.43l1.56-3.84h7.34l1.56,3.84h2.47l-6.65-15.46h-1.9ZM399.82,627.87l2.93-7.1h.04l2.88,7.1h-5.85Z"/>
  <polygon points="445.63 630.79 445.6 630.79 437.05 618.07 434.31 618.07 434.31 633.53 436.4 633.53 436.4 620.8 436.44 620.8 445.07 633.53 447.72 633.53 447.72 618.07 445.63 618.07 445.63 630.79"/>
  <path d="M510.86,631.4c-.68.38-1.44.57-2.35.57s-1.71-.15-2.43-.5c-.72-.31-1.29-.76-1.79-1.29-.5-.57-.88-1.22-1.14-1.94-.26-.72-.42-1.52-.42-2.32,0-.87.15-1.71.42-2.47.27-.76.69-1.41,1.18-1.98.5-.57,1.1-1.02,1.82-1.37.69-.3,1.48-.5,2.36-.5.72,0,1.4.15,2.08.46.65.3,1.21.76,1.64,1.33l1.79-1.33c-.64-.84-1.44-1.44-2.43-1.82-.99-.38-1.98-.57-3-.57-1.22,0-2.28.19-3.27.6-.99.39-1.86.95-2.55,1.71-.72.72-1.25,1.59-1.67,2.62-.38,1.03-.57,2.13-.57,3.31,0,.99.15,1.93.53,2.89.38.95.87,1.82,1.6,2.58.68.76,1.52,1.37,2.5,1.82.99.46,2.09.72,3.31.72.87,0,1.66-.11,2.35-.34.68-.23,1.25-.49,1.75-.79.46-.3.84-.61,1.14-.91.3-.3.49-.53.61-.69l-1.75-1.33c-.49.64-1.07,1.17-1.71,1.52"/>
  <path d="M551.62,620.01c-.72-.73-1.56-1.29-2.55-1.72-.99-.41-2.09-.6-3.26-.6s-2.28.19-3.27.6c-.99.42-1.82.99-2.54,1.72-.68.72-1.26,1.59-1.63,2.58-.42.99-.61,2.05-.61,3.22s.18,2.21.61,3.2c.37.98.95,1.86,1.63,2.58.72.72,1.55,1.29,2.54,1.71.99.42,2.09.64,3.27.64s2.27-.23,3.26-.64c.99-.42,1.83-.99,2.55-1.71.68-.72,1.25-1.6,1.64-2.58.42-.99.61-2.06.61-3.2s-.19-2.24-.61-3.22c-.38-.99-.95-1.86-1.64-2.58M551.25,628.21c-.31.72-.69,1.36-1.18,1.94-.53.57-1.14.99-1.86,1.33-.72.31-1.52.5-2.39.5s-1.67-.19-2.39-.5c-.72-.34-1.33-.76-1.86-1.33-.49-.57-.87-1.22-1.17-1.94-.27-.76-.42-1.55-.42-2.4s.15-1.67.42-2.39c.3-.76.68-1.41,1.17-1.98.53-.53,1.14-.99,1.86-1.33.72-.3,1.52-.49,2.39-.49s1.67.19,2.39.49c.72.35,1.33.8,1.86,1.33.49.57.87,1.22,1.18,1.98.27.72.42,1.52.42,2.39s-.15,1.64-.42,2.4"/>
  <path d="M585.82,625.66c-.57-.3-1.18-.53-1.82-.73-.69-.18-1.29-.38-1.86-.57-.57-.23-1.03-.53-1.4-.88-.38-.34-.57-.84-.57-1.52,0-.23.04-.46.15-.76.08-.27.27-.53.49-.76.23-.23.53-.46.91-.61.38-.15.87-.23,1.48-.23s1.14.15,1.64.38c.45.27.83.57,1.1.99l1.71-1.56c-.57-.72-1.25-1.17-2.05-1.41-.76-.22-1.56-.34-2.39-.34-.95,0-1.75.12-2.39.42-.68.27-1.22.65-1.64,1.06-.42.42-.76.88-.95,1.37-.19.53-.27,1.02-.27,1.44,0,1.03.19,1.82.53,2.4.38.61.88,1.06,1.45,1.44.53.35,1.14.61,1.82.8.65.19,1.26.42,1.83.61.57.23,1.03.5,1.41.8.38.3.57.76.57,1.37,0,.42-.08.8-.27,1.1-.19.34-.45.61-.72.8-.3.23-.65.42-1.03.5-.34.11-.72.19-1.06.19-.61,0-1.21-.15-1.82-.42-.57-.27-1.07-.69-1.44-1.25l-1.75,1.48c.53.72,1.25,1.25,2.12,1.63.92.34,1.83.53,2.82.53.76,0,1.45-.11,2.13-.34.64-.23,1.21-.53,1.71-.95.46-.42.84-.91,1.14-1.52.26-.57.42-1.25.42-1.98,0-.95-.19-1.67-.58-2.2-.37-.53-.83-.95-1.4-1.29"/>
  <polygon points="620.73 629.76 620.61 629.76 615.72 618.07 612.6 618.07 612.6 633.53 614.69 633.53 614.69 620.8 614.73 620.8 619.97 633.53 621.34 633.53 626.57 620.8 626.62 620.8 626.62 633.53 628.7 633.53 628.7 618.07 625.59 618.07 620.73 629.76"/>
  <polygon points="656.48 626.61 663.84 626.61 663.84 624.64 656.48 624.64 656.48 620.04 664.38 620.04 664.38 618.07 654.39 618.07 654.39 633.53 664.76 633.53 664.76 631.55 656.48 631.55 656.48 626.61"/>
  <polygon points="687.86 620.04 692.83 620.04 692.83 633.53 694.92 633.53 694.92 620.04 699.9 620.04 699.9 618.07 687.86 618.07 687.86 620.04"/>
  <rect x="723.98" y="618.06" width="2.1" height="15.46"/>
  <path d="M761.29,631.4c-.68.38-1.45.57-2.36.57s-1.71-.15-2.39-.5c-.72-.31-1.33-.76-1.82-1.29-.49-.57-.87-1.22-1.14-1.94-.27-.72-.38-1.52-.38-2.32,0-.87.11-1.71.41-2.47.27-.76.65-1.41,1.15-1.98.53-.57,1.1-1.02,1.82-1.37.73-.3,1.49-.5,2.35-.5.73,0,1.41.15,2.1.46.68.3,1.21.76,1.67,1.33l1.74-1.33c-.65-.84-1.44-1.44-2.43-1.82-.98-.38-1.97-.57-3-.57-1.17,0-2.28.19-3.27.6-.98.39-1.86.95-2.55,1.71-.72.72-1.25,1.59-1.67,2.62-.38,1.03-.57,2.13-.57,3.31,0,.99.19,1.93.53,2.89.38.95.9,1.82,1.6,2.58.68.76,1.51,1.37,2.5,1.82.99.46,2.09.72,3.31.72.91,0,1.67-.11,2.35-.34.68-.23,1.25-.49,1.75-.79.5-.3.87-.61,1.14-.91.3-.3.49-.53.61-.69l-1.75-1.33c-.46.64-1.02,1.17-1.71,1.52"/>
  <path d="M796.2,625.66c-.53-.3-1.14-.53-1.83-.73-.65-.18-1.26-.38-1.82-.57-.57-.23-1.03-.53-1.4-.88-.38-.34-.57-.84-.57-1.52,0-.23.04-.46.12-.76.11-.27.27-.53.49-.76.26-.23.57-.46.95-.61.38-.15.88-.23,1.44-.23.61,0,1.18.15,1.64.38.49.27.88.57,1.14.99l1.67-1.56c-.57-.72-1.26-1.17-2.01-1.41-.76-.22-1.6-.34-2.43-.34-.91,0-1.71.12-2.39.42-.65.27-1.21.65-1.63,1.06-.43.42-.72.88-.92,1.37-.19.53-.3,1.02-.3,1.44,0,1.03.18,1.82.57,2.4.38.61.84,1.06,1.4,1.44.57.35,1.18.61,1.82.8.69.19,1.29.42,1.86.61.57.23,1.03.5,1.41.8.38.3.57.76.57,1.37,0,.42-.11.8-.3,1.1-.19.34-.42.61-.72.8-.31.23-.65.42-.99.5-.38.11-.72.19-1.06.19-.65,0-1.25-.15-1.82-.42-.62-.27-1.1-.69-1.49-1.25l-1.7,1.48c.53.72,1.22,1.25,2.12,1.63.87.34,1.82.53,2.82.53.75,0,1.44-.11,2.09-.34.64-.23,1.21-.53,1.71-.95.49-.42.87-.91,1.14-1.52.3-.57.41-1.25.41-1.98,0-.95-.15-1.67-.53-2.2-.38-.53-.87-.95-1.44-1.29"/>
  <path d="M161.33,697.74h757.33v-315.48H161.33v315.48ZM911.33,690.4H168.67v-300.8h742.66v300.8Z"/>
</svg>