<?xml version="1.0" encoding="UTF-8"?>
<svg id="Livello_2" data-name="Livello 2" xmlns="http://www.w3.org/2000/svg" xmlns:xlink="http://www.w3.org/1999/xlink" viewBox="0 0 1080 1080">
  <defs>
    <style>
      .cls-1 {
        opacity: .05;
      }

      .cls-2 {
        fill: #fff;
      }

      .cls-3 {
        fill: none;
      }

      .cls-4 {
        fill: #d7d2cb;
      }

      .cls-5 {
        fill: #8c8e81;
      }

      .cls-6 {
        clip-path: url(#clippath);
      }
    </style>
    <clipPath id="clippath">
      <rect class="cls-3" width="1080" height="1080"/>
    </clipPath>
  </defs>
  <g id="Livello_1-2" data-name="Livello 1">
    <g class="cls-6">
      <rect class="cls-5" width="1080" height="1080"/>
      <g class="cls-1">
        <g>
          <path class="cls-4" d="M859.39,586.8v93.34h15.51v-93.34c0-86.4-64.61-156.76-144.03-156.76-31.63,0-61.58,11.05-86.84,31.96-5.67-7.76-12-15.1-18.78-21.84,29.88-24.37,67.23-37.71,105.62-37.71,92.32,0,167.45,75.13,167.45,167.49v109.25h15.52v-109.25c0-100.89-82.08-183-182.97-183-42.72,0-84.23,15.14-117.17,42.69-32.93-27.55-74.44-42.69-117.17-42.69-100.88,0-182.96,82.11-182.96,183v109.25h15.51v-109.25c0-92.36,75.09-167.49,167.45-167.49,38.37,0,75.75,13.34,105.62,37.71-6.78,6.74-13.06,14.04-18.77,21.84-25.26-20.9-55.26-31.96-86.85-31.96-79.38,0-143.98,70.35-143.98,156.76v93.34h15.51v-93.34c0-77.83,57.62-141.21,128.47-141.21,28.57,0,55.51,10.12,78.2,29.35-4.81,7.83-8.98,15.95-12.45,24.16-18.73-16.78-41.87-26-65.75-26-56.15,0-101.82,49.64-101.82,110.65v94.52h15.51v-94.52c0-52.44,38.73-95.09,86.31-95.09,22.16,0,43.39,9.27,59.95,26.16-3.02,9.5-5.27,19.1-6.65,28.73-12.16-15.35-30.57-24.37-50.61-24.37-35.39,0-64.16,28-64.16,62.44v97.86h15.51v-97.86c0-25.87,21.84-46.9,48.65-46.9s48.64,21.02,48.64,46.9v314.4h15.51v-326.08c0-13.34,1.72-26.82,5.06-40.16,10.46,15.87,16.58,34.49,17.63,53.96v323.96h16.29v-320.9c0-19.95,3.84-39.35,11.34-57.62,7.55,18.32,11.35,37.67,11.35,57.62v344.73h16.24v-347.34c1.14-19.79,7.26-38.48,17.71-54.37,3.35,13.35,5.02,26.82,5.02,40.12v386.03h15.47v-374.36c0-25.87,21.88-46.9,48.69-46.9s48.64,21.02,48.64,46.9v97.86h15.51v-97.86c0-34.45-28.77-62.44-64.15-62.44-20,0-38.44,9.02-50.57,24.37-1.47-9.63-3.67-19.27-6.65-28.69,16.57-16.9,37.75-26.2,59.9-26.2,47.59,0,86.32,42.65,86.32,95.09v94.52h15.51v-94.52c0-61.02-45.67-110.65-101.83-110.65-23.83,0-47.06,9.23-65.74,26.04-3.55-8.32-7.72-16.45-12.45-24.2,22.65-19.23,49.67-29.35,78.19-29.35,70.86,0,128.52,63.38,128.52,141.21M641.18,486c4.73,8.16,8.81,16.73,12.12,25.55-7.8,9.46-14,20.03-18.53,31.5-3.02-11.1-7.06-21.79-12.2-31.87,5.31-9.11,11.55-17.59,18.61-25.18M604.85,511.18c-5.11,10.03-9.15,20.73-12.16,31.83-4.57-11.51-10.81-22.04-18.57-31.5,3.3-8.86,7.39-17.43,12.08-25.51,7.05,7.55,13.3,15.99,18.65,25.18M632.6,472.56c-7.18,7.26-13.51,15.06-18.9,23.19-5.39-8.13-11.71-15.92-18.89-23.19,5.59-7.8,11.92-15.14,18.89-22,6.98,6.86,13.3,14.25,18.9,22"/>
          <path class="cls-4" d="M617.14,113.33c-289.8,0-525.53,235.73-525.53,525.53,0,114.48,36.36,223.29,105.09,314.87-11.67,7.5-24.93,14-39.43,19.26l-3.26,1.18,9.67,13.35,1.88-.74c22.53-8.65,41.92-19.79,57.54-33.18,72.85-62.35,221.41-62.39,294.25,0,37.88,32.4,95.21,50.98,157.21,50.98s119.37-18.57,157.28-50.98l1.96-1.72-10.08-11.79-2,1.67c-72.84,62.4-221.4,62.36-294.25,0-55.62-47.5-152.39-63.86-235.97-40.16-60.16-74.31-93.26-167.57-93.26-262.74,0-230.99,187.94-418.88,418.89-418.88s418.89,187.9,418.89,418.88c0,140.56-70.24,271.16-187.94,349.23l-16.08,10.66,36.03-11.8,16.9-6.57.65-.41c105.45-83.18,165.94-207.53,165.94-341.11,0-239.56-194.88-434.43-434.4-434.43s-434.4,194.87-434.4,434.43c0,98.11,32.12,190.64,92.89,267.85-10.33,3.63-19.47,7.55-27.84,11.88-61.79-81.29-94.44-177.98-94.44-279.73,0-255.76,208.06-463.82,463.79-463.82s463.78,208.06,463.78,463.82c0,111.7-40.56,219.77-114.22,304.29l-6.94,8,30.53-11.92.41-.53c68.2-84.81,105.75-191.28,105.75-299.85,0-264.33-214.95-479.32-479.29-479.32s-479.29,214.99-479.29,479.32c0,104.48,33.35,203.9,96.52,287.65-8.57,5.31-15.43,10.2-21.35,15.26-1.14.98-2.32,1.84-3.46,2.7l-.13.08c-66.93-88.97-102.31-194.63-102.31-305.68,0-281.23,228.78-510.02,510.02-510.02s510.02,228.79,510.02,510.02c0,96.77-27.5,191.16-79.46,272.87l-4.33,6.77,24.33-9.5.49-.77c48.73-81.33,74.48-174.47,74.48-269.36,0-289.8-235.73-525.53-525.53-525.53"/>
          <path class="cls-4" d="M821.72,996.26c-72.85,62.36-221.4,62.36-294.25,0-79.34-67.87-235.15-67.87-314.49,0-7.3,6.29-15.95,12.16-26.4,17.96l-2.58,1.47,9.23,12.74,2.04-1.19c10.93-6.24,20.08-12.53,27.83-19.14,72.85-62.4,221.4-62.4,294.25,0,37.91,32.36,95.21,50.98,157.25,50.98s119.33-18.61,157.24-50.98l1.96-1.72-10.09-11.84-1.99,1.72Z"/>
          <path class="cls-4" d="M821.72,1050.74c-72.85,62.4-221.4,62.36-294.25,0-79.34-67.87-235.11-67.91-314.74.21l-2.07,1.55,7.55,10.41,2.03,1.95,2.86-2.32c72.85-62.36,221.4-62.36,294.25,0,37.91,32.4,95.21,51.01,157.25,51.01s119.33-18.61,157.24-51.01l1.96-1.68-10.09-11.84-1.99,1.72Z"/>
        </g>
      </g>
      <g>
        <polygon class="cls-2" points="308.32 444.28 308.32 447.58 317.39 447.58 317.39 799.55 308.32 799.55 308.32 802.85 352.44 802.85 352.44 799.55 343.87 799.55 343.87 447.58 352.44 447.58 352.44 444.28 308.32 444.28"/>
        <path class="cls-2" d="M402.29,564.31c-3.09-14.94-5.01-27.69-5.01-45.06v-64.5c0-6.41,1.9-7.67,5.15-7.67,9.18,0,20.27,23.65,20.27,53.02v103.2h3.3v-159.02h-3.3v3.42c0,.63-.06.96-.1,1.12h0c-.57,0-2.11-.61-3.59-1.21-3.82-1.53-9.57-3.84-16.57-3.84-19.86,0-27.6,8.45-27.6,30.12v44.85c0,33.56,1.96,52.87,8.09,79.42l18.14,81.61c3.32,16.06,5.01,33.44,5.01,51.62v60.97c0,6.45-1.99,7.67-5.66,7.67-10.51,0-22.28-22.68-22.28-53.02v-108.23h-3.3v164.06h3.3v-3.42c0-.63.06-.97.1-1.12h.02c.56,0,2.1.56,3.74,1.15,4.25,1.54,10.69,3.88,18.43,3.88,20.5,0,28.11-8.16,28.11-30.12v-47.36c0-33.95-1.97-53.37-8.1-79.93l-18.14-81.62Z"/>
        <path class="cls-2" d="M509.88,447.7c0,.63-.05.96-.1,1.12h0c-1.27,0-4.05-.91-6.99-1.87-4.53-1.49-9.67-3.18-13.67-3.18-19.52,0-31.63,5.12-31.63,30.63v301.35c0,18.83,9.57,27.61,30.12,27.61h5.04c13.83,0,20.55-8.2,20.55-25.09v-139.47h-3.3v139.47c0,15.06-5.32,21.78-17.25,21.78-6.49,0-8.17-1.57-8.17-7.66v-337.62c0-6.95,1.41-7.67,4.64-7.67,8.28,0,20.77,21.14,20.77,53.02v103.19h3.3v-159.02h-3.3v3.42Z"/>
        <path class="cls-2" d="M581.94,447.58h6.43c.8,0,1.03.09,1.01.07.02.04.11.26.11,1.05v167.91h-17.86v-167.91c0-.78.09-1,.07-1,.04-.02.26-.12,1.05-.12h6.44v-3.3h-43.12v3.3h7.95c.8,0,1.02.09,1.01.07.02.04.11.26.11,1.05v350.85h-9.07v3.3h43.12v-3.3h-7.56v-179.62h17.86v179.62h-7.55v3.3h42.61v-3.3h-8.06v-350.85c0-.78.09-1,.06-1,.05-.03.26-.12,1.06-.12h6.94v-3.3h-42.61v3.3Z"/>
        <polygon class="cls-2" points="641.9 447.58 650.97 447.58 650.97 799.55 641.9 799.55 641.9 802.85 686.02 802.85 686.02 799.55 677.45 799.55 677.45 447.58 686.02 447.58 686.02 444.28 641.9 444.28 641.9 447.58"/>
        <path class="cls-2" d="M749,446.69c0-1.28-1.12-2.41-2.4-2.41h-33.65v3.3h11.06l-14.59,336.66c-.5,9.9-4.33,15.31-6.16,15.31h-1.9v3.3h27.99v-3.3h-2.4c-4.01,0-7.82-1.6-10.46-4.37-2.68-2.81-3.98-6.54-3.76-10.79l3-65.69h18.39l2.5,80.85h-5.53v3.3h40.59v-3.3h-7.58l-15.1-352.86ZM715.76,715.39l10.54-244.3,7.79,244.3h-18.33Z"/>
        <path class="cls-2" d="M545.02,410.33c0-11.01-7.45-20.36-22.45-20.36h-18.08v.97h5.01v38.3h-5.01v.97h19.49c14.81,0,21.05-9.83,21.05-19.89M523.98,429.24h-6.01v-38.3h4.69c10.97,0,13.22,9.15,13.22,19.67,0,9.62-1.72,18.63-11.9,18.63"/>
        <polygon class="cls-2" points="566.27 390.95 566.27 389.97 547.75 389.97 547.75 390.95 552.76 390.95 552.76 429.25 547.75 429.25 547.75 430.22 566.27 430.22 566.27 429.25 561.23 429.25 561.23 390.95 566.27 390.95"/>
        <path class="cls-2" d="M462.94,374.74c1.04,0,2.01-.09,2.97-.23h179.05v-2.62h-22.36v-1.06h-1.25c-5.01,0-5.14-4.02-5.14-7.36v-75.31c0-2.78.13-6.81,5.41-6.81h.7v-2.23h-25.84v2.23h.98c5.83,0,5.83,4.03,5.83,6.81v75.31c0,3.34-.28,7.36-5.56,7.36h-1.67v1.06h-6.67v-22.45h-2.5c-2.08,19.18-8.48,20.7-14.73,20.7h-5.84c-1.11,0-3.33-.27-3.33-3.89v-78.09c0-2.78,0-6.81,5-6.81h1.25v-2.23h-25.99v2.23h.84c5.97,0,5.97,4.03,5.97,6.81v75.31c0,3.06-.28,7.36-5.14,7.36h-1.81v1.06h-.28v-1.06c-3.61,0-6.52-1.52-7.64-6.8l-19.17-87.4c-1.53,1.25-5.84,4.44-11.4,6.11,0,0,.55,2.78,1.39,6.8l-14.31,73.64c-1.11,4.45-2.64,7.64-8.75,7.64v1.06h-9.63c7.35-4.49,11.02-13.67,11.02-22.45,0-24.59-31.26-34.46-31.26-54.89,0-6.95,4.17-13.61,11.68-13.61,9.58,0,12.78,10.41,13.47,17.36h2.64v-18.76c-3.61-.83-9.72-1.94-15.14-1.94-13.06,0-22.51,10.42-22.51,23.2,0,24.74,31.69,33.77,31.69,57.25,0,6.39-3.21,13.34-11.96,13.34-9.86,0-14.86-12.78-15.56-21.96h-2.5v22.45h-19.66v2.62h33.83c1.34.14,2.65.23,3.88.23M508.1,299.57l8.34,39.74h-15.57l7.23-39.74ZM496.15,365.43l4.03-22.51h16.96c2.78,12.92,4.72,22.79,4.72,22.65.56,4.16-.69,5.27-5.41,5.27v1.06h-13.76v-1.06c-6.25-.27-6.81-3.19-6.52-5.41"/>
      </g>
    </g>
  </g>
</svg>